<?xml version="1.0" encoding="UTF-8"?>
<!DOCTYPE svg PUBLIC "-//W3C//DTD SVG 1.1//EN" "http://www.w3.org/Graphics/SVG/1.1/DTD/svg11.dtd">
<svg xmlns="http://www.w3.org/2000/svg" version="1.1" width="65px" height="47px" style="shape-rendering:geometricPrecision; text-rendering:geometricPrecision; image-rendering:optimizeQuality; fill-rule:evenodd; clip-rule:evenodd" xmlns:xlink="http://www.w3.org/1999/xlink">
<g><path style="opacity:0.826" fill="#002c96" d="M 5.5,-0.5 C 13.8333,-0.5 22.1667,-0.5 30.5,-0.5C 31.881,1.27413 31.5477,2.77413 29.5,4C 22.1667,4.33333 14.8333,4.66667 7.5,5C 6.69194,5.30762 6.02527,5.80762 5.5,6.5C 4.53147,14.4441 4.19813,22.4441 4.5,30.5C 22.8333,30.5 41.1667,30.5 59.5,30.5C 59.6664,22.4931 59.4997,14.4931 59,6.5C 54.6683,4.94496 50.1683,3.94496 45.5,3.5C 44.3744,2.19165 44.3744,0.858316 45.5,-0.5C 50.1667,-0.5 54.8333,-0.5 59.5,-0.5C 60.8333,1.5 62.5,3.16667 64.5,4.5C 64.5,16.8333 64.5,29.1667 64.5,41.5C 63.1667,43.5 61.5,45.1667 59.5,46.5C 41.1667,46.5 22.8333,46.5 4.5,46.5C 2.614,45.0699 0.947334,43.4032 -0.5,41.5C -0.5,29.5 -0.5,17.5 -0.5,5.5C 1.16667,3.16667 3.16667,1.16667 5.5,-0.5 Z M 4.5,36.5 C 22.8333,36.5 41.1667,36.5 59.5,36.5C 59.5479,39.2919 58.2146,41.1253 55.5,42C 39.8333,42.6667 24.1667,42.6667 8.5,42C 5.78539,41.1253 4.45206,39.2919 4.5,36.5 Z"/></g>
<g><path style="opacity:0.812" fill="#000000" d="M 13.5,10.5 C 20.175,10.3337 26.8417,10.5004 33.5,11C 34.3802,12.3561 34.7135,13.8561 34.5,15.5C 27.1667,15.5 19.8333,15.5 12.5,15.5C 12.366,13.7085 12.6993,12.0418 13.5,10.5 Z"/></g>
<g><path style="opacity:0.725" fill="#000000" d="M 13.5,19.5 C 16.8499,19.335 20.1832,19.5017 23.5,20C 24.8333,21.3333 24.8333,22.6667 23.5,24C 19.8333,24.6667 16.1667,24.6667 12.5,24C 11.2568,22.184 11.5901,20.684 13.5,19.5 Z"/></g>
</svg>
