<?xml version="1.0" encoding="UTF-8"?>
<!DOCTYPE svg PUBLIC "-//W3C//DTD SVG 1.1//EN" "http://www.w3.org/Graphics/SVG/1.1/DTD/svg11.dtd">
<svg xmlns="http://www.w3.org/2000/svg" version="1.1" width="512px" height="512px" style="shape-rendering:geometricPrecision; text-rendering:geometricPrecision; image-rendering:optimizeQuality; fill-rule:evenodd; clip-rule:evenodd" xmlns:xlink="http://www.w3.org/1999/xlink">
<g><path style="opacity:0.983" fill="#002c95" d="M 118.5,-0.5 C 124.167,-0.5 129.833,-0.5 135.5,-0.5C 147.123,1.47097 157.79,5.97097 167.5,13C 182.667,26.8333 197.833,40.6667 213,54.5C 228.649,33.9503 248.815,27.4503 273.5,35C 282.877,38.8503 290.543,44.8503 296.5,53C 297.5,53.6667 298.5,53.6667 299.5,53C 315.202,38.2961 331.202,23.9628 347.5,10C 356.297,4.79357 365.63,1.29357 375.5,-0.5C 381.167,-0.5 386.833,-0.5 392.5,-0.5C 435.813,9.7536 454.646,37.0869 449,81.5C 448.024,86.6116 446.191,91.2783 443.5,95.5C 442.026,96.4363 441.026,97.7697 440.5,99.5C 435.742,105.763 430.409,111.596 424.5,117C 414.528,121.319 404.861,126.153 395.5,131.5C 393.847,131.66 392.514,132.326 391.5,133.5C 363.167,133.5 334.833,133.5 306.5,133.5C 306.5,136.167 306.5,138.833 306.5,141.5C 305.167,160.155 304.5,179.155 304.5,198.5C 304.667,217.5 304.833,236.5 305,255.5C 305.181,258.695 305.681,261.695 306.5,264.5C 306.5,275.5 306.5,286.5 306.5,297.5C 304.962,306.782 304.295,316.282 304.5,326C 305.396,376.496 305.729,426.996 305.5,477.5C 305.175,485.019 305.508,492.352 306.5,499.5C 306.5,503.5 306.5,507.5 306.5,511.5C 295.167,511.5 283.833,511.5 272.5,511.5C 272.5,500.167 272.5,488.833 272.5,477.5C 272.5,395.833 272.5,314.167 272.5,232.5C 272.5,221.5 272.5,210.5 272.5,199.5C 272.833,176.758 272.499,154.758 271.5,133.5C 261.5,133.5 251.5,133.5 241.5,133.5C 240.878,132.373 240.045,131.373 239,130.5C 238.5,153.498 238.333,176.498 238.5,199.5C 238.5,210.5 238.5,221.5 238.5,232.5C 238.5,314.167 238.5,395.833 238.5,477.5C 238.5,488.833 238.5,500.167 238.5,511.5C 227.5,511.5 216.5,511.5 205.5,511.5C 205.5,500.167 205.5,488.833 205.5,477.5C 205.5,395.833 205.5,314.167 205.5,232.5C 205.5,221.5 205.5,210.5 205.5,199.5C 205.831,177.327 205.497,155.327 204.5,133.5C 173.5,133.5 142.5,133.5 111.5,133.5C 111.167,132.5 110.5,131.833 109.5,131.5C 101.53,129.348 94.1964,125.848 87.5,121C 80.4639,113.71 73.7973,106.21 67.5,98.5C 57.4724,75.4388 58.3058,52.7721 70,30.5C 81.7455,13.2127 97.9122,2.87939 118.5,-0.5 Z M 124.5,33.5 C 134.1,33.421 142.434,36.5877 149.5,43C 169.2,61.7019 189.2,80.0352 209.5,98C 179.833,98.6667 150.167,98.6667 120.5,98C 100.132,91.4369 91.9652,77.6036 96,56.5C 101.063,43.2316 110.563,35.5649 124.5,33.5 Z M 382.5,33.5 C 384.861,33.6741 387.194,34.0074 389.5,34.5C 406.217,38.3834 415.217,48.8834 416.5,66C 415.195,82.6396 406.528,93.3062 390.5,98C 360.833,98.6667 331.167,98.6667 301.5,98C 306.062,93.2691 310.729,88.7691 315.5,84.5C 319.921,81.2901 323.921,77.6235 327.5,73.5C 340.629,62.2082 353.629,50.7082 366.5,39C 371.473,36.0648 376.806,34.2315 382.5,33.5 Z M 251.5,66.5 C 260.777,65.2993 267.111,68.966 270.5,77.5C 265.916,82.7505 260.916,87.7505 255.5,92.5C 251.981,89.1465 248.314,85.9798 244.5,83C 240.448,80.6236 239.615,77.4569 242,73.5C 244.529,70.1151 247.696,67.7818 251.5,66.5 Z M 241.5,133.5 C 251.5,133.5 261.5,133.5 271.5,133.5C 271.5,155.167 271.5,176.833 271.5,198.5C 260.833,198.5 250.167,198.5 239.5,198.5C 238.844,176.474 239.511,154.808 241.5,133.5 Z M 271.5,477.5 C 260.833,477.5 250.167,477.5 239.5,477.5C 239.5,396.167 239.5,314.833 239.5,233.5C 250.167,233.5 260.833,233.5 271.5,233.5C 271.5,314.833 271.5,396.167 271.5,477.5 Z"/></g>
<g><path style="opacity:0.353" fill="#051237" d="M 382.5,33.5 C 383.449,32.8476 384.615,32.5143 386,32.5C 387.681,32.6083 388.848,33.2749 389.5,34.5C 387.194,34.0074 384.861,33.6741 382.5,33.5 Z"/></g>
<g><path style="opacity:0.11" fill="#001546" d="M 327.5,73.5 C 323.921,77.6235 319.921,81.2901 315.5,84.5C 315.062,84.5654 314.728,84.3988 314.5,84C 318.579,79.4068 322.913,75.9068 327.5,73.5 Z"/></g>
<g><path style="opacity:0.457" fill="#001342" d="M 443.5,95.5 C 443.586,96.4959 443.252,97.3292 442.5,98C 450.677,98.1708 458.677,98.6708 466.5,99.5C 457.833,99.5 449.167,99.5 440.5,99.5C 441.026,97.7697 442.026,96.4363 443.5,95.5 Z"/></g>
<g><path style="opacity:1" fill="#000001" d="M 67.5,98.5 C 73.7973,106.21 80.4639,113.71 87.5,121C 94.1964,125.848 101.53,129.348 109.5,131.5C 88.1667,132.167 66.8333,132.833 45.5,133.5C 39.7795,135.887 35.7795,139.887 33.5,145.5C 32.5032,163.326 32.1699,181.326 32.5,199.5C 90.1667,199.5 147.833,199.5 205.5,199.5C 205.5,210.5 205.5,221.5 205.5,232.5C 158.997,232.168 112.664,232.501 66.5,233.5C 66.3333,310.167 66.5,386.834 67,463.5C 68.9471,471.114 73.7804,475.614 81.5,477C 122.499,477.5 163.499,477.667 204.5,477.5C 204.833,477.5 205.167,477.5 205.5,477.5C 205.5,488.833 205.5,500.167 205.5,511.5C 162.167,511.5 118.833,511.5 75.5,511.5C 52.0765,506.41 38.0765,492.076 33.5,468.5C 33.5,389.833 33.5,311.167 33.5,232.5C 26.5,232.5 19.5,232.5 12.5,232.5C 6.40638,231.401 2.07304,228.068 -0.5,222.5C -0.5,194.5 -0.5,166.5 -0.5,138.5C 6.21867,115.951 21.2187,102.784 44.5,99C 52.1594,98.5003 59.8261,98.3336 67.5,98.5 Z"/></g>
<g><path style="opacity:1" fill="#000001" d="M 440.5,99.5 C 449.167,99.5 457.833,99.5 466.5,99.5C 490.288,102.955 505.288,116.288 511.5,139.5C 511.5,167.167 511.5,194.833 511.5,222.5C 508.927,228.068 504.594,231.401 498.5,232.5C 491.5,232.5 484.5,232.5 477.5,232.5C 477.5,311.167 477.5,389.833 477.5,468.5C 472.923,492.076 458.923,506.41 435.5,511.5C 392.5,511.5 349.5,511.5 306.5,511.5C 306.5,507.5 306.5,503.5 306.5,499.5C 306.5,492.5 306.5,485.5 306.5,478.5C 347.67,478.832 388.67,478.499 429.5,477.5C 437.043,475.793 441.876,471.126 444,463.5C 444.5,386.834 444.667,310.167 444.5,233.5C 398.336,232.501 352.003,232.168 305.5,232.5C 305.5,221.5 305.5,210.5 305.5,199.5C 363.167,199.5 420.833,199.5 478.5,199.5C 478.83,181.326 478.497,163.326 477.5,145.5C 475.221,139.887 471.221,135.887 465.5,133.5C 442.167,132.833 418.833,132.167 395.5,131.5C 404.861,126.153 414.528,121.319 424.5,117C 430.409,111.596 435.742,105.763 440.5,99.5 Z"/></g>
<g><path style="opacity:0.247" fill="#001444" d="M 109.5,131.5 C 110.5,131.833 111.167,132.5 111.5,133.5C 89.5,133.5 67.5,133.5 45.5,133.5C 66.8333,132.833 88.1667,132.167 109.5,131.5 Z"/></g>
<g><path style="opacity:0.247" fill="#001545" d="M 395.5,131.5 C 418.833,132.167 442.167,132.833 465.5,133.5C 440.833,133.5 416.167,133.5 391.5,133.5C 392.514,132.326 393.847,131.66 395.5,131.5 Z"/></g>
<g><path style="opacity:0.518" fill="#00123e" d="M 241.5,133.5 C 239.511,154.808 238.844,176.474 239.5,198.5C 250.167,198.5 260.833,198.5 271.5,198.5C 271.5,176.833 271.5,155.167 271.5,133.5C 272.499,154.758 272.833,176.758 272.5,199.5C 261.167,199.5 249.833,199.5 238.5,199.5C 238.333,176.498 238.5,153.498 239,130.5C 240.045,131.373 240.878,132.373 241.5,133.5 Z M 241.5,133.5 C 251.5,133.5 261.5,133.5 271.5,133.5C 271.5,155.167 271.5,176.833 271.5,198.5C 260.833,198.5 250.167,198.5 239.5,198.5C 238.844,176.474 239.511,154.808 241.5,133.5 Z"/></g>
<g><path style="opacity:0.247" fill="#001443" d="M 204.5,133.5 C 205.497,155.327 205.831,177.327 205.5,199.5C 147.833,199.5 90.1667,199.5 32.5,199.5C 32.1699,181.326 32.5032,163.326 33.5,145.5C 33.5,163.167 33.5,180.833 33.5,198.5C 90.5,198.5 147.5,198.5 204.5,198.5C 204.5,176.833 204.5,155.167 204.5,133.5 Z"/></g>
<g><path style="opacity:1" fill="#000000" d="M 238.5,199.5 C 249.833,199.5 261.167,199.5 272.5,199.5C 272.5,210.5 272.5,221.5 272.5,232.5C 261.167,232.5 249.833,232.5 238.5,232.5C 238.5,221.5 238.5,210.5 238.5,199.5 Z"/></g>
<g><path style="opacity:0.463" fill="#001340" d="M 306.5,141.5 C 306.5,160.5 306.5,179.5 306.5,198.5C 363.5,198.5 420.5,198.5 477.5,198.5C 477.5,180.833 477.5,163.167 477.5,145.5C 478.497,163.326 478.83,181.326 478.5,199.5C 420.833,199.5 363.167,199.5 305.5,199.5C 305.5,210.5 305.5,221.5 305.5,232.5C 352.003,232.168 398.336,232.501 444.5,233.5C 398.5,233.5 352.5,233.5 306.5,233.5C 306.5,243.833 306.5,254.167 306.5,264.5C 305.681,261.695 305.181,258.695 305,255.5C 304.833,236.5 304.667,217.5 304.5,198.5C 304.5,179.155 305.167,160.155 306.5,141.5 Z"/></g>
<g><path style="opacity:0.847" fill="#000d2c" d="M 12.5,232.5 C 19.5,232.5 26.5,232.5 33.5,232.5C 33.5,311.167 33.5,389.833 33.5,468.5C 32.5007,390.335 32.1674,312.002 32.5,233.5C 25.6457,233.824 18.979,233.491 12.5,232.5 Z"/></g>
<g><path style="opacity:0.173" fill="#001545" d="M 66.5,233.5 C 112.664,232.501 158.997,232.168 205.5,232.5C 205.5,314.167 205.5,395.833 205.5,477.5C 205.167,477.5 204.833,477.5 204.5,477.5C 204.5,396.167 204.5,314.833 204.5,233.5C 158.5,233.5 112.5,233.5 66.5,233.5 Z"/></g>
<g><path style="opacity:0.518" fill="#00123d" d="M 238.5,232.5 C 249.833,232.5 261.167,232.5 272.5,232.5C 272.5,314.167 272.5,395.833 272.5,477.5C 272.167,477.5 271.833,477.5 271.5,477.5C 271.5,396.167 271.5,314.833 271.5,233.5C 260.833,233.5 250.167,233.5 239.5,233.5C 239.5,314.833 239.5,396.167 239.5,477.5C 239.167,477.5 238.833,477.5 238.5,477.5C 238.5,395.833 238.5,314.167 238.5,232.5 Z M 271.5,477.5 C 260.833,477.5 250.167,477.5 239.5,477.5C 239.5,396.167 239.5,314.833 239.5,233.5C 250.167,233.5 260.833,233.5 271.5,233.5C 271.5,314.833 271.5,396.167 271.5,477.5 Z"/></g>
<g><path style="opacity:0.847" fill="#000d2b" d="M 498.5,232.5 C 492.021,233.491 485.354,233.824 478.5,233.5C 478.833,312.002 478.499,390.335 477.5,468.5C 477.5,389.833 477.5,311.167 477.5,232.5C 484.5,232.5 491.5,232.5 498.5,232.5 Z"/></g>
<g><path style="opacity:0.17" fill="#00174d" d="M 306.5,297.5 C 306.5,357.5 306.5,417.5 306.5,477.5C 306.167,477.5 305.833,477.5 305.5,477.5C 305.729,426.996 305.396,376.496 304.5,326C 304.295,316.282 304.962,306.782 306.5,297.5 Z"/></g>
<g><path style="opacity:0.98" fill="#000515" d="M 305.5,477.5 C 305.833,477.5 306.167,477.5 306.5,477.5C 347.5,477.5 388.5,477.5 429.5,477.5C 388.67,478.499 347.67,478.832 306.5,478.5C 306.5,485.5 306.5,492.5 306.5,499.5C 305.508,492.352 305.175,485.019 305.5,477.5 Z"/></g>
<g><path style="opacity:1" fill="#000002" d="M 238.5,477.5 C 238.833,477.5 239.167,477.5 239.5,477.5C 250.167,477.5 260.833,477.5 271.5,477.5C 271.833,477.5 272.167,477.5 272.5,477.5C 272.5,488.833 272.5,500.167 272.5,511.5C 261.167,511.5 249.833,511.5 238.5,511.5C 238.5,500.167 238.5,488.833 238.5,477.5 Z"/></g>
</svg>
