<?xml version="1.0" encoding="UTF-8"?>
<!DOCTYPE svg PUBLIC "-//W3C//DTD SVG 1.1//EN" "http://www.w3.org/Graphics/SVG/1.1/DTD/svg11.dtd">
<svg xmlns="http://www.w3.org/2000/svg" version="1.1" width="52px" height="52px" style="shape-rendering:geometricPrecision; text-rendering:geometricPrecision; image-rendering:optimizeQuality; fill-rule:evenodd; clip-rule:evenodd" xmlns:xlink="http://www.w3.org/1999/xlink">
<g><path style="opacity:0.807" fill="#000000" d="M 18.5,-0.5 C 23.1667,-0.5 27.8333,-0.5 32.5,-0.5C 37.9617,1.61447 42.6284,4.9478 46.5,9.5C 46.5397,6.94657 48.2064,5.94657 51.5,6.5C 51.5,11.1667 51.5,15.8333 51.5,20.5C 50.5178,21.1408 49.5178,21.8075 48.5,22.5C 45.1667,20.1667 41.8333,17.8333 38.5,15.5C 36.9496,12.8707 37.6162,11.0374 40.5,10C 30.2019,2.53907 20.0352,2.70573 10,10.5C 8.62333,12.7538 7.12333,14.9205 5.5,17C 3.60856,17.3087 2.27523,16.4753 1.5,14.5C 5.0324,6.9611 10.6991,1.9611 18.5,-0.5 Z"/></g>
<g><path style="opacity:0.808" fill="#002c96" d="M 33.5,51.5 C 28.5,51.5 23.5,51.5 18.5,51.5C 13.0308,49.5383 8.5308,46.205 5,41.5C 4.07182,44.0352 2.23848,45.0352 -0.5,44.5C -0.5,40.1667 -0.5,35.8333 -0.5,31.5C 0.267389,30.828 0.934056,29.9947 1.5,29C 2.16667,28.3333 2.83333,28.3333 3.5,29C 7.09945,31.6165 10.4328,34.4498 13.5,37.5C 13.4096,39.4251 12.4096,40.5917 10.5,41C 18.5209,47.059 27.1876,48.059 36.5,44C 40.5614,41.0269 44.0614,37.5269 47,33.5C 48.0217,34.354 48.8551,35.354 49.5,36.5C 46.0591,43.6103 40.7258,48.6103 33.5,51.5 Z"/></g>
</svg>
