<?xml version="1.0" encoding="UTF-8"?>
<!DOCTYPE svg PUBLIC "-//W3C//DTD SVG 1.1//EN" "http://www.w3.org/Graphics/SVG/1.1/DTD/svg11.dtd">
<svg xmlns="http://www.w3.org/2000/svg" version="1.1" width="27px" height="13px" style="shape-rendering:geometricPrecision; text-rendering:geometricPrecision; image-rendering:optimizeQuality; fill-rule:evenodd; clip-rule:evenodd" xmlns:xlink="http://www.w3.org/1999/xlink">
<g><path style="opacity:0.699" fill="#000000" d="M 18.5,-0.5 C 19.5,-0.5 20.5,-0.5 21.5,-0.5C 22.8333,1.5 24.5,3.16667 26.5,4.5C 26.5,5.5 26.5,6.5 26.5,7.5C 24.5,8.83333 22.8333,10.5 21.5,12.5C 20.5,12.5 19.5,12.5 18.5,12.5C 19.6253,10.8712 20.9586,9.37121 22.5,8C 14.8406,7.50031 7.1739,7.33365 -0.5,7.5C -0.5,6.83333 -0.5,6.16667 -0.5,5.5C 7.50694,5.66638 15.5069,5.49971 23.5,5C 21.576,3.25024 19.9093,1.41691 18.5,-0.5 Z"/></g>
</svg>
